<mxfile host="Electron" agent="Mozilla/5.0 (Windows NT 10.0; Win64; x64) AppleWebKit/537.36 (KHTML, like Gecko) draw.io/28.1.2 Chrome/138.0.7204.243 Electron/37.4.0 Safari/537.36" version="28.1.2">
  <diagram name="Pagina-1" id="Wa5b3mYzhJ-MMQACXbMv">
    <mxGraphModel dx="786" dy="524" grid="1" gridSize="10" guides="1" tooltips="1" connect="1" arrows="1" fold="1" page="1" pageScale="1" pageWidth="827" pageHeight="1169" math="0" shadow="0">
      <root>
        <mxCell id="0" />
        <mxCell id="1" parent="0" />
        <mxCell id="n90anFpDmOzUIxIAIGWE-17" style="edgeStyle=orthogonalEdgeStyle;rounded=0;orthogonalLoop=1;jettySize=auto;html=1;exitX=1;exitY=0.5;exitDx=0;exitDy=0;entryX=0;entryY=0.5;entryDx=0;entryDy=0;endArrow=doubleBlock;endFill=1;" edge="1" parent="1" source="n90anFpDmOzUIxIAIGWE-14" target="n90anFpDmOzUIxIAIGWE-16">
          <mxGeometry relative="1" as="geometry" />
        </mxCell>
        <mxCell id="n90anFpDmOzUIxIAIGWE-14" value="autore" style="rounded=0;whiteSpace=wrap;html=1;" vertex="1" parent="1">
          <mxGeometry x="170" y="240" width="120" height="60" as="geometry" />
        </mxCell>
        <mxCell id="n90anFpDmOzUIxIAIGWE-18" style="edgeStyle=orthogonalEdgeStyle;rounded=0;orthogonalLoop=1;jettySize=auto;html=1;exitX=0;exitY=0.5;exitDx=0;exitDy=0;entryX=1;entryY=0.5;entryDx=0;entryDy=0;" edge="1" parent="1" source="n90anFpDmOzUIxIAIGWE-15" target="n90anFpDmOzUIxIAIGWE-16">
          <mxGeometry relative="1" as="geometry" />
        </mxCell>
        <mxCell id="n90anFpDmOzUIxIAIGWE-15" value="libro" style="rounded=0;whiteSpace=wrap;html=1;" vertex="1" parent="1">
          <mxGeometry x="570" y="240" width="120" height="60" as="geometry" />
        </mxCell>
        <mxCell id="n90anFpDmOzUIxIAIGWE-16" value="scrive" style="rhombus;whiteSpace=wrap;html=1;" vertex="1" parent="1">
          <mxGeometry x="380" y="230" width="80" height="80" as="geometry" />
        </mxCell>
        <mxCell id="n90anFpDmOzUIxIAIGWE-19" value="" style="endArrow=none;html=1;rounded=0;" edge="1" parent="1">
          <mxGeometry width="50" height="50" relative="1" as="geometry">
            <mxPoint x="310" y="310" as="sourcePoint" />
            <mxPoint x="310" y="230" as="targetPoint" />
          </mxGeometry>
        </mxCell>
        <mxCell id="n90anFpDmOzUIxIAIGWE-25" style="edgeStyle=orthogonalEdgeStyle;rounded=0;orthogonalLoop=1;jettySize=auto;html=1;exitX=1;exitY=0.5;exitDx=0;exitDy=0;entryX=0;entryY=0.25;entryDx=0;entryDy=0;" edge="1" parent="1" source="n90anFpDmOzUIxIAIGWE-20" target="n90anFpDmOzUIxIAIGWE-14">
          <mxGeometry relative="1" as="geometry" />
        </mxCell>
        <mxCell id="n90anFpDmOzUIxIAIGWE-20" value="" style="ellipse;whiteSpace=wrap;html=1;aspect=fixed;fillColor=#000000;" vertex="1" parent="1">
          <mxGeometry x="90" y="240" width="20" height="20" as="geometry" />
        </mxCell>
        <mxCell id="n90anFpDmOzUIxIAIGWE-21" value="" style="ellipse;whiteSpace=wrap;html=1;aspect=fixed;" vertex="1" parent="1">
          <mxGeometry x="90" y="280" width="20" height="20" as="geometry" />
        </mxCell>
        <mxCell id="n90anFpDmOzUIxIAIGWE-23" value="id" style="text;html=1;align=center;verticalAlign=middle;whiteSpace=wrap;rounded=0;" vertex="1" parent="1">
          <mxGeometry x="40" y="235" width="60" height="30" as="geometry" />
        </mxCell>
        <mxCell id="n90anFpDmOzUIxIAIGWE-24" value="nominativo" style="text;html=1;align=center;verticalAlign=middle;resizable=0;points=[];autosize=1;strokeColor=none;fillColor=none;" vertex="1" parent="1">
          <mxGeometry x="10" y="275" width="80" height="30" as="geometry" />
        </mxCell>
        <mxCell id="n90anFpDmOzUIxIAIGWE-26" style="edgeStyle=orthogonalEdgeStyle;rounded=0;orthogonalLoop=1;jettySize=auto;html=1;exitX=1;exitY=0.5;exitDx=0;exitDy=0;entryX=-0.006;entryY=0.633;entryDx=0;entryDy=0;entryPerimeter=0;" edge="1" parent="1" source="n90anFpDmOzUIxIAIGWE-21" target="n90anFpDmOzUIxIAIGWE-14">
          <mxGeometry relative="1" as="geometry" />
        </mxCell>
        <mxCell id="n90anFpDmOzUIxIAIGWE-27" value="" style="ellipse;whiteSpace=wrap;html=1;aspect=fixed;" vertex="1" parent="1">
          <mxGeometry x="720" y="230" width="20" height="20" as="geometry" />
        </mxCell>
        <mxCell id="n90anFpDmOzUIxIAIGWE-29" value="nome libro" style="text;html=1;align=center;verticalAlign=middle;whiteSpace=wrap;rounded=0;" vertex="1" parent="1">
          <mxGeometry x="740" y="225" width="60" height="30" as="geometry" />
        </mxCell>
        <mxCell id="n90anFpDmOzUIxIAIGWE-30" value="genere libro" style="text;html=1;align=center;verticalAlign=middle;whiteSpace=wrap;rounded=0;" vertex="1" parent="1">
          <mxGeometry x="740" y="270" width="60" height="30" as="geometry" />
        </mxCell>
        <mxCell id="n90anFpDmOzUIxIAIGWE-31" value="data publicazione&amp;nbsp;" style="text;html=1;align=center;verticalAlign=middle;whiteSpace=wrap;rounded=0;" vertex="1" parent="1">
          <mxGeometry x="740" y="330" width="60" height="30" as="geometry" />
        </mxCell>
        <mxCell id="n90anFpDmOzUIxIAIGWE-35" style="edgeStyle=orthogonalEdgeStyle;rounded=0;orthogonalLoop=1;jettySize=auto;html=1;exitX=0;exitY=0;exitDx=0;exitDy=0;entryX=1;entryY=0.5;entryDx=0;entryDy=0;" edge="1" parent="1" source="n90anFpDmOzUIxIAIGWE-32" target="n90anFpDmOzUIxIAIGWE-15">
          <mxGeometry relative="1" as="geometry" />
        </mxCell>
        <mxCell id="n90anFpDmOzUIxIAIGWE-32" value="" style="ellipse;whiteSpace=wrap;html=1;aspect=fixed;" vertex="1" parent="1">
          <mxGeometry x="720" y="275" width="20" height="20" as="geometry" />
        </mxCell>
        <mxCell id="n90anFpDmOzUIxIAIGWE-36" style="edgeStyle=orthogonalEdgeStyle;rounded=0;orthogonalLoop=1;jettySize=auto;html=1;exitX=0;exitY=0.5;exitDx=0;exitDy=0;entryX=0.972;entryY=0.378;entryDx=0;entryDy=0;entryPerimeter=0;" edge="1" parent="1" source="n90anFpDmOzUIxIAIGWE-27" target="n90anFpDmOzUIxIAIGWE-15">
          <mxGeometry relative="1" as="geometry" />
        </mxCell>
        <mxCell id="n90anFpDmOzUIxIAIGWE-38" value="" style="ellipse;whiteSpace=wrap;html=1;aspect=fixed;" vertex="1" parent="1">
          <mxGeometry x="720" y="330" width="20" height="20" as="geometry" />
        </mxCell>
        <mxCell id="n90anFpDmOzUIxIAIGWE-39" style="edgeStyle=orthogonalEdgeStyle;rounded=0;orthogonalLoop=1;jettySize=auto;html=1;exitX=0;exitY=0.5;exitDx=0;exitDy=0;entryX=0.872;entryY=0.911;entryDx=0;entryDy=0;entryPerimeter=0;" edge="1" parent="1" source="n90anFpDmOzUIxIAIGWE-38" target="n90anFpDmOzUIxIAIGWE-15">
          <mxGeometry relative="1" as="geometry" />
        </mxCell>
        <mxCell id="n90anFpDmOzUIxIAIGWE-40" value="" style="ellipse;whiteSpace=wrap;html=1;aspect=fixed;fillColor=#000000;" vertex="1" parent="1">
          <mxGeometry x="720" y="190" width="20" height="20" as="geometry" />
        </mxCell>
        <mxCell id="n90anFpDmOzUIxIAIGWE-41" value="id" style="text;html=1;align=center;verticalAlign=middle;whiteSpace=wrap;rounded=0;" vertex="1" parent="1">
          <mxGeometry x="730" y="185" width="60" height="30" as="geometry" />
        </mxCell>
        <mxCell id="n90anFpDmOzUIxIAIGWE-42" style="edgeStyle=orthogonalEdgeStyle;rounded=0;orthogonalLoop=1;jettySize=auto;html=1;exitX=0;exitY=0.5;exitDx=0;exitDy=0;entryX=0.972;entryY=0.144;entryDx=0;entryDy=0;entryPerimeter=0;" edge="1" parent="1" source="n90anFpDmOzUIxIAIGWE-40" target="n90anFpDmOzUIxIAIGWE-15">
          <mxGeometry relative="1" as="geometry" />
        </mxCell>
      </root>
    </mxGraphModel>
  </diagram>
</mxfile>
